Coordinates
version=1
nRows=9
nColumns=63
inDegrees=yes

Units are S.I. units (second, meters, Newtons, ...)
If the header above contains a line with 'inDegrees', this indicates whether rotational values are in degrees (yes) or radians (no).

endheader
time	pelvis_tilt	pelvis_list	pelvis_rotation	pelvis_tx	pelvis_ty	pelvis_tz	hip_flexion_r	hip_adduction_r	hip_rotation_r	knee_angle_r	knee_angle_r_beta	ankle_angle_r	subtalar_angle_r	mtp_angle_r	hip_flexion_l	hip_adduction_l	hip_rotation_l	knee_angle_l	knee_angle_l_beta	ankle_angle_l	subtalar_angle_l	mtp_angle_l	L5_S1_Flex_Ext	L5_S1_Lat_Bending	L5_S1_axial_rotation	L4_L5_Flex_Ext	L4_L5_Lat_Bending	L4_L5_axial_rotation	L3_L4_Flex_Ext	L3_L4_Lat_Bending	L3_L4_axial_rotation	L2_L3_Flex_Ext	L2_L3_Lat_Bending	L2_L3_axial_rotation	L1_L2_Flex_Ext	L1_L2_Lat_Bending	L1_L2_axial_rotation	L1_T12_Flex_Ext	L1_T12_Lat_Bending	L1_T12_axial_rotation	Abs_r3	Abs_r2	Abs_r1	Abs_t1	Abs_t2	neck_flexion	neck_bending	neck_rotation	arm_flex_r	arm_add_r	arm_rot_r	elbow_flex_r	pro_sup_r	wrist_flex_r	wrist_dev_r	arm_flex_l	arm_add_l	arm_rot_l	elbow_flex_l	pro_sup_l	wrist_flex_l	wrist_dev_l
      0.00000000	     -1.43001570	     -4.06732313	     88.15170355	      0.09312850	      1.01854079	      0.39520711	      9.84477584	     -1.71372432	    -18.55370592	     14.39899053	      0.25130979	     40.62336473	     17.88307674	      0.00000000	     11.70927213	     -0.01948996	     -5.35429455	     16.49896103	      0.28796119	     39.68616177	      9.53280315	      0.00000000	      0.07617684	     -0.03207705	      1.09312625	      0.14146801	     -0.04266248	      1.16144664	      0.12515093	     -0.07799214	      1.16144664	      0.08706251	     -0.07799214	      0.95648547	      0.07073781	     -0.06541152	      0.88816508	      0.04352745	     -0.04968735	      0.81984469	      0.54412356	     -0.36286200	      6.07964029	      0.00000000	      0.00000000	     24.86919955	      3.64066855	     -9.23928025	     23.67815711	     -2.05382958	     94.69679389	     23.98608592	     87.36777933	    -17.52706920	     -5.21795668	     26.42172947	      1.81217724	     99.77210987	     24.67120662	     19.82874758	      1.44436929	      2.98365243
      0.01666667	     -1.20991401	     -4.27313591	     88.59563479	      0.09271580	      1.01793060	      0.39439230	      9.89764973	     -1.59113914	    -19.45666834	     14.87921870	      0.25969136	     39.99851756	     17.38995352	      0.00000000	     11.86234548	     -0.21624185	     -4.64478879	     16.88792418	      0.29474988	     39.03349889	      9.46355130	      0.00000000	      0.11486835	      0.01628217	      0.80968105	      0.21332201	      0.02165529	      0.86028611	      0.18871721	      0.03958847	      0.86028611	      0.13128303	      0.03958847	      0.70847091	      0.10666675	      0.03320260	      0.65786585	      0.06563577	      0.02522108	      0.60726078	      0.82049312	      0.18418718	      4.50320307	      0.00000000	      0.00000000	     24.95533408	      4.00647990	     -6.26628979	     23.78311327	     -1.97783649	     95.88473438	     24.32716203	     88.04400179	    -18.48020684	     -4.29033962	     25.64239460	      1.17178665	     99.40029684	     25.51184964	     20.94173612	      0.76892591	     -0.27591738
      0.03333333	     -1.07421857	     -4.30214573	     88.91489876	      0.09244436	      1.01783433	      0.39354260	      9.68092098	     -1.48311820	    -20.20620374	     14.85282228	      0.25923065	     39.58169170	     17.31312042	      0.00000000	     11.74635645	     -0.05115905	     -2.35633501	     16.88765109	      0.29474511	     38.08248534	      6.77653738	      0.00000000	      0.12565554	      0.05775747	      0.50038122	      0.23335490	      0.07681743	      0.53165504	      0.20643948	      0.14043150	      0.53165504	      0.14361171	      0.14043150	      0.43783357	      0.11668373	      0.11777902	      0.40655974	      0.07179957	      0.08946631	      0.37528591	      0.89754495	      0.65336401	      2.78297022	      0.00000000	      0.00000000	     24.89780580	      4.61554654	     -3.00850223	     24.96484358	     -0.44754633	    105.55498019	     22.58012439	     87.53815175	    -22.31451440	     -4.31837463	     23.55933991	      0.05608600	     91.18644597	     26.72124860	     30.96461536	     -0.62976976	     -0.33135279
      0.05000000	     -0.83242042	     -4.38896641	     89.16020831	      0.09211600	      1.01750617	      0.39328831	      9.68096390	     -1.24861740	    -20.42499998	     14.82686841	      0.25877767	     39.47593823	     17.21241988	      0.00000000	     11.89903177	     -0.29766841	     -2.20030993	     17.18481344	      0.29993158	     37.87429385	      6.69594662	      0.00000000	      0.13622456	      0.09662836	      0.35449348	      0.25298262	      0.12851571	      0.37664932	      0.22380332	      0.23494218	      0.37664932	      0.15569104	      0.23494218	      0.31018180	      0.12649812	      0.19704454	      0.28802595	      0.07783871	      0.14967732	      0.26587011	      0.97303838	      1.09307928	      1.97158639	      0.00000000	      0.00000000	     24.96986743	      4.72821276	     -1.78500573	     24.79579721	     -0.50707090	    106.25383797	     23.07694000	     87.86434226	    -23.66561881	     -3.40052419	     22.90240832	     -0.15129747	     90.62774328	     27.16348819	     31.66038502	     -1.30059408	     -1.55704476
      0.06666667	     -0.74411091	     -4.44424661	     89.28859340	      0.09226378	      1.01726993	      0.39308659	      9.69335495	     -1.12044659	    -20.49707660	     14.70836451	      0.25670939	     39.61863005	     17.20458830	      0.00000000	     11.97146450	     -0.40580872	     -2.12995729	     17.28100136	      0.30161037	     37.78909489	      6.55427374	      0.00000000	      0.14429669	      0.11235062	      0.22549425	      0.26797338	      0.14942632	      0.23958764	      0.23706503	      0.27316929	      0.23958764	      0.16491668	      0.27316929	      0.19730746	      0.13399390	      0.22910538	      0.18321407	      0.08245113	      0.17403111	      0.16912068	      1.03069680	      1.27093266	      1.25413134	      0.00000000	      0.00000000	     24.97359235	      4.86989943	     -0.72771542	     25.16666043	      0.72308428	    113.29277598	     21.74169857	     87.54706799	    -27.02463067	     -3.00502359	     21.76748935	     -0.67500157	     87.00105103	     27.97276667	     35.49294650	     -1.68724927	     -0.95779185
      0.08333333	     -0.70094023	     -4.40120241	     89.38054849	      0.09199429	      1.01721875	      0.39303649	      9.69612234	     -1.09635872	    -20.39070714	     14.68193224	      0.25624806	     39.86080587	     17.26498785	      0.00000000	     11.95083690	     -0.45143596	     -2.27310245	     17.33713566	      0.30259010	     37.73616989	      6.45475616	      0.00000000	      0.13458553	      0.11871879	      0.20628434	      0.24993879	      0.15789599	      0.21917711	      0.22111057	      0.28865286	      0.21917711	      0.15381780	      0.28865286	      0.18049879	      0.12497612	      0.24209135	      0.16760602	      0.07690217	      0.18389540	      0.15471325	      0.96133099	      1.34297068	      1.14729159	      0.00000000	      0.00000000	     25.09353417	      4.85924754	     -0.72999828	     24.77838668	      0.73412466	    113.35903419	     21.82748820	     87.53386234	    -27.11381723	     -2.94680508	     21.42687182	     -0.61298205	     87.09420814	     28.05012969	     35.50782160	     -1.68399645	     -0.92727752
      0.10000000	     -0.46512111	     -4.65264244	     89.34054233	      0.09193923	      1.01659815	      0.39314559	      9.85827743	     -0.76355699	    -20.16353319	     14.25932675	      0.24887220	     40.02003431	     17.43741732	      0.00000000	     12.41095535	     -0.74777018	     -2.55582825	     17.75356498	      0.30985816	     38.02271519	      6.32211484	      0.00000000	      0.16998015	      0.15085185	      0.22172207	      0.31567013	      0.20063297	      0.23557970	      0.27926039	      0.36678120	      0.23557970	      0.19427031	      0.36678120	      0.19400681	      0.15784357	      0.30761710	      0.18014918	      0.09712666	      0.23366952	      0.16629155	      1.21415120	      1.70646635	      1.23315164	      0.00000000	      0.00000000	     25.26377179	      4.57286271	     -0.69123877	     24.25633905	      0.72641704	    114.04882282	     21.95900943	     87.71141331	    -29.25633357	     -2.05329107	     21.04812937	     -0.57435197	     87.07216040	     28.40104460	     35.33358278	     -2.03239514	     -0.66196421
      0.11666667	     -0.99768114	     -4.67439305	     89.34792064	      0.09328898	      1.01719346	      0.39280807	      9.85649903	     -1.19310849	    -19.78261789	     14.15790436	      0.24710205	     40.25854350	     17.26727911	      0.00000000	     12.25232194	     -0.39670223	     -3.70035122	     17.45713440	      0.30468447	     37.73299644	      7.31221836	      0.00000000	      0.17412079	      0.04325441	      0.27222326	      0.32335971	      0.05752836	      0.28923722	      0.28606304	      0.10516876	      0.28923722	      0.19900265	      0.10516876	      0.23819535	      0.16168856	      0.08820438	      0.22118140	      0.09949262	      0.06700107	      0.20416745	      1.24372736	      0.48930248	      1.51402412	      0.00000000	      0.00000000	     25.36951346	      5.13196511	     -2.47721780	     20.35065026	      8.47246140	    216.31358000	      0.39668264	     14.20701533	    -29.81549413	     -2.41264176	     20.85998610	     -1.03097291	     87.81929176	     28.62033124	     34.69766317	     -2.27560261	     -0.15846314
      0.13333333	     -0.99684068	     -4.65403360	     89.40580814	      0.09306228	      1.01698430	      0.39288141	      9.81297729	     -1.19558268	    -19.72415579	     14.17499311	      0.24740030	     40.31876020	     17.30738858	      0.00000000	     12.23872741	     -0.39833217	     -3.78983433	     17.52300973	      0.30583421	     37.69462075	      7.24220571	      0.00000000	      0.16766362	      0.04473467	      0.27176341	      0.31136811	      0.05949712	      0.28874863	      0.27545456	      0.10876789	      0.28874863	      0.19162275	      0.10876789	      0.23779299	      0.15569244	      0.09122295	      0.22080777	      0.09580299	      0.06929401	      0.20382256	      1.19760448	      0.50604758	      1.51146658	      0.00000000	      0.00000000	     25.50894496	      5.10502587	     -2.46052966	     19.95290837	      8.58292170	    216.37765557	      0.40770459	     14.26356211	    -29.81771339	     -2.45131735	     20.56516331	     -1.02071446	     87.92422327	     28.63451981	     34.67849747	     -2.26680895	     -0.08629829
